<svg xmlns="http://www.w3.org/2000/svg" viewBox="0 0 51.997 51.997"><path d="M51.91 16.242C51.152 7.888 45.24 1.827 37.84 1.827c-4.93 0-9.444 2.653-11.984 6.905-2.517-4.307-6.846-6.906-11.697-6.906-7.4 0-13.313 6.06-14.07 14.415-.06.37-.306 2.31.442 5.478 1.078 4.568 3.568 8.723 7.2 12.013l18.115 16.44L44.27 33.733c3.63-3.29 6.12-7.445 7.2-12.014.748-3.166.502-5.108.443-5.477zm-2.4 5.02c-.984 4.172-3.265 7.973-6.6 10.985L25.855 47.48 9.072 32.25c-3.33-3.018-5.61-6.818-6.596-11-.708-2.997-.417-4.7-.416-4.7l.015-.1c.65-7.32 5.73-12.632 12.083-12.632 4.687 0 8.813 2.88 10.77 7.515l.92 2.183.92-2.183c1.927-4.564 6.27-7.514 11.07-7.514 6.35 0 11.433 5.313 12.096 12.727.002.016.293 1.7-.415 4.707z"/></svg>